<svg xmlns="http://www.w3.org/2000/svg" width="30" height="27" viewBox="0 0 30 27">
    <defs>
        <filter id="a" width="200%" height="200%" x="-50%" y="-50%" filterUnits="objectBoundingBox">
            <feOffset dy="2" in="SourceAlpha" result="shadowOffsetOuter1"/>
            <feGaussianBlur in="shadowOffsetOuter1" result="shadowBlurOuter1" stdDeviation="2"/>
            <feColorMatrix in="shadowBlurOuter1" result="shadowMatrixOuter1" values="0 0 0 0 0 0 0 0 0 0 0 0 0 0 0 0 0 0 0.2 0"/>
            <feMerge>
                <feMergeNode in="shadowMatrixOuter1"/>
                <feMergeNode in="SourceGraphic"/>
            </feMerge>
        </filter>
    </defs>
    <path fill="#FFF" fill-rule="evenodd" d="M135.373 16.922c-2.486-.088-4.04-1.888-4.449-3.35a4.705 4.705 0 0 0 2.05-.06l.067-.033c-1.345-.316-2.384-1.043-3.104-2.214a4.727 4.727 0 0 1-.702-2.566 4.679 4.679 0 0 0 2.128.583c-1.01-.735-1.69-1.696-1.967-2.927-.276-1.225-.097-2.392.512-3.493 2.59 3.075 5.866 4.766 9.861 5.042-.026-.191-.055-.357-.076-.528-.134-1.136.09-2.194.7-3.156.759-1.204 1.847-1.952 3.242-2.182 1.61-.266 3.012.197 4.185 1.347l.255.077a9.66 9.66 0 0 0 2.782-1.082l.064-.03.03-.003c-.378 1.121-1.067 1.987-2.047 2.625a9.115 9.115 0 0 0 2.663-.723l.02.021c-.183.243-.36.49-.551.725a9.409 9.409 0 0 1-1.737 1.667l-.08.152c.027.716 0 1.43-.088 2.14a14.335 14.335 0 0 1-1.233 4.299 13.858 13.858 0 0 1-2.584 3.804c-1.823 1.9-4.016 3.127-6.571 3.696-.877.195-1.766.292-2.665.317-2.755.081-5.306-.61-7.65-2.072l-.112-.073c1.668.18 3.256-.035 4.783-.664a9.513 9.513 0 0 0 2.274-1.34" filter="url(#a)" transform="translate(-125)"/>
</svg>
