<svg xmlns="http://www.w3.org/2000/svg" width="94" height="21" viewBox="0 0 94 21">
    <g fill="none" fill-rule="evenodd">
        <text fill="#4A4A4A" font-family="OpenSans, Open Sans" font-size="14" letter-spacing="1.283" opacity=".8">
            <tspan x="23.525" y="18.217">SLICEPA</tspan> <tspan x="83.73" y="18.217" letter-spacing="1.123">Y</tspan>
        </text>
        <g fill="#FFC033">
            <path d="M10.599.849C5.202.849.827 5.322.827 10.839c0 .175.004.349.013.522.198 3.927 2.613 7.254 5.991 8.698v-6.315h3.343a4.43 4.43 0 0 0 .885-.141c.269-.07.523-.175.744-.36a1.15 1.15 0 0 0 .206-1.51c-.19-.29-.449-.5-.727-.685-.383-.252-.794-.439-1.203-.631-.355-.167-.714-.325-1.062-.507a4.832 4.832 0 0 1-1.316-.99c-.546-.588-.85-1.298-.912-2.126-.045-.6 0-1.19.209-1.753.086-.233.193-.447.318-.644.256-.401.59-.732.991-1 .514-.343 1.077-.547 1.667-.673a7.815 7.815 0 0 1 1.758-.155h4.351A9.578 9.578 0 0 0 10.6.85"/>
            <path d="M18.4 4.82v.047h-6.668c-.038 0-.077.004-.116.005-.43.006-.854.067-1.251.262a1.327 1.327 0 0 0-.584.519c-.217.37-.181.854.09 1.217.179.24.407.418.65.575.41.268.848.472 1.29.671.542.244 1.075.51 1.572.85.44.301.835.659 1.136 1.123.306.47.475.993.525 1.562a4.948 4.948 0 0 1-.083 1.523 3.209 3.209 0 0 1-1.327 1.985c-.491.345-1.035.549-1.608.671a8.294 8.294 0 0 1-1.77.18v.001H8.967v4.679a9.62 9.62 0 0 0 1.632.14c5.226 0 9.494-4.194 9.76-9.47.008-.172.012-.346.012-.521 0-2.26-.734-4.344-1.972-6.018"/>
        </g>
    </g>
</svg>
